<?xml version="1.0" encoding="UTF-8" standalone="no"?>
<!-- Created with Inkscape (http://www.inkscape.org/) -->

<svg
   width="297mm"
   height="210mm"
   viewBox="0 0 297 210"
   version="1.1"
   id="svg1"
   xml:space="preserve"
   sodipodi:docname="jlop_logo_final.svg"
   inkscape:export-filename="jlop_logo_final.png"
   inkscape:export-xdpi="150"
   inkscape:export-ydpi="150"
   inkscape:version="1.2.2 (b0a8486541, 2022-12-01)"
   xmlns:inkscape="http://www.inkscape.org/namespaces/inkscape"
   xmlns:sodipodi="http://sodipodi.sourceforge.net/DTD/sodipodi-0.dtd"
   xmlns="http://www.w3.org/2000/svg"
   xmlns:svg="http://www.w3.org/2000/svg"><sodipodi:namedview
     id="namedview23"
     pagecolor="#ffffff"
     bordercolor="#000000"
     borderopacity="0.25"
     inkscape:showpageshadow="2"
     inkscape:pageopacity="0.0"
     inkscape:pagecheckerboard="0"
     inkscape:deskcolor="#d1d1d1"
     inkscape:document-units="mm"
     showgrid="false"
     inkscape:zoom="0.29734127"
     inkscape:cx="563.32577"
     inkscape:cy="398.53196"
     inkscape:window-width="1920"
     inkscape:window-height="1131"
     inkscape:window-x="0"
     inkscape:window-y="0"
     inkscape:window-maximized="1"
     inkscape:current-layer="svg1" /><defs
     id="defs1"><marker
       style="overflow:visible"
       id="marker72"
       refX="0"
       refY="0"
       orient="auto-start-reverse"
       markerWidth="1"
       markerHeight="1"
       viewBox="0 0 1 1"
       preserveAspectRatio="xMidYMid"><path
         style="fill:none;stroke:context-stroke;stroke-width:1;stroke-linecap:butt"
         d="M 3,-3 0,0 3,3"
         transform="rotate(180,0.125,0)"
         id="path72" /></marker><marker
       style="overflow:visible"
       id="ArrowWide"
       refX="0"
       refY="0"
       orient="auto-start-reverse"
       markerWidth="1"
       markerHeight="1"
       viewBox="0 0 1 1"
       preserveAspectRatio="xMidYMid"><path
         style="fill:none;stroke:context-stroke;stroke-width:1;stroke-linecap:butt"
         d="M 3,-3 0,0 3,3"
         transform="rotate(180,0.125,0)"
         id="path1" /></marker></defs><g
     id="layer2"
     style="display:inline"
     transform="translate(-613.99998)"><g
       id="g77"
       transform="translate(-55.691715,1.6036891)"><text
         xml:space="preserve"
         style="font-size:123.47px;line-height:0.7;font-family:jost;-inkscape-font-specification:jost;text-align:justify;writing-mode:lr-tb;direction:ltr;text-anchor:start;display:inline;opacity:1;fill:none;stroke:#000000;stroke-width:38.4995"
         x="878.78369"
         y="91.15081"
         id="text40"><tspan
           id="tspan40"
           style="font-style:normal;font-variant:normal;font-weight:normal;font-stretch:normal;font-family:Z003;-inkscape-font-specification:Z003;fill:#000000;fill-opacity:1;stroke:none;stroke-width:38.4997;stroke-opacity:1"
           x="878.78369"
           y="91.15081">p</tspan></text><g
         id="g41"
         transform="matrix(13.118128,0,0,13.118128,754.61708,-1152.0493)"
         style="stroke-width:0.266985;stroke-dasharray:none"><path
           style="display:inline;opacity:1;fill:#bfdbef;fill-opacity:1;stroke:#000000;stroke-width:0.266985;stroke-linecap:butt;stroke-dasharray:none;stroke-opacity:1;marker-end:url(#ArrowWide)"
           d="m 1.6214448,97.759475 -0.0078,-7.750315"
           id="path40" /><path
           style="display:inline;opacity:1;fill:#bfdbef;fill-opacity:1;stroke:#000000;stroke-width:0.266985;stroke-linecap:butt;stroke-dasharray:none;stroke-opacity:1;marker-end:url(#marker72)"
           d="m 1.6213113,97.626837 12.6115207,-0.0078"
           id="path41" /></g><g
         id="g44"
         transform="matrix(7.885941,0,0,7.885941,586.57653,-686.59526)"
         style="display:inline;stroke-width:0.333093;stroke-dasharray:none"><path
           style="opacity:1;fill:#bfdbef;fill-opacity:1;stroke:#000000;stroke-width:0.754683;stroke-linecap:round;stroke-dasharray:none;stroke-opacity:1"
           id="path42"
           d="m 36.701957,114.19295 c 0,0.33658 -0.188267,0.61943 -0.21503,0.94913 -0.195814,0.33312 0.373421,0.56454 0.32521,0.87205 0.37761,0.31119 -0.245497,0.47731 -0.339281,0.83845 -0.210631,0.12283 -0.26542,0.31873 -0.402556,0.69179 -0.199032,-0.0309 -0.354073,0.81481 -0.549555,1.2183 -0.160648,0.26528 -0.299819,0.50849 -0.453125,0.77843 -0.176628,0.23038 -0.272127,0.6705 -0.445795,0.93517 -0.10604,0.36207 -0.162948,0.35749 -0.331274,0.58298 -0.0652,0.18387 -0.436975,0.33868 -0.679745,0.61449 -0.227538,0.0342 0.652765,0.55541 0.390983,0.81394 0.737764,0.41774 -0.63822,0.59802 -1.153198,0.95429 -0.09455,0.0449 -0.90214,0.48914 -1.274723,0.70201 -0.426407,0.15784 -0.546908,0.25008 -0.763811,0.36304 -0.366749,0.14029 -0.487266,0.20596 -0.734764,0.32248 -0.288423,0.0939 -0.350653,0.26352 -0.644891,0.38607 -0.11967,0.14318 -0.604488,0.26159 -0.976911,0.38408 -0.218834,0.0883 -0.604939,0.19946 -0.955046,0.2881 -0.257375,0.0735 -0.685795,0.1341 -1.028651,0.19655 -0.336522,0.0348 0.0301,0.10398 -0.281909,0.14447 -0.353589,0.0459 -1.31529,0.0254 -1.620412,0.0254 -0.336589,0 0.219144,0.0792 -0.110829,0.0527 0.266822,0.0428 -1.216325,-0.14785 -1.825512,-0.28848 -0.29554,-0.0747 -0.516714,-0.19937 -0.831124,-0.29681 -0.211505,-0.14261 -0.618699,-0.284 -0.944044,-0.41192 -0.249639,-0.18035 -1.499232,-0.22967 -1.785171,-0.36364 -0.953482,-0.007 -0.259463,-0.15455 -0.296415,-0.1723 -0.404722,-0.225 -0.246585,-0.009 -0.455445,-0.12458 -0.170198,0.009 -0.700765,-0.64529 -1.029498,-0.87507 -0.219953,-0.3867 -0.466266,-0.38678 -0.672986,-0.55184 -0.258362,-0.25359 -0.397921,-0.39899 -0.606854,-0.59113 -0.186973,-0.24597 -0.633474,-0.56185 -0.845279,-0.78896 -0.344565,-0.30523 0.128245,-0.28345 -0.02177,-0.46679 0.187033,-0.24866 -0.14885,-0.76672 -0.387323,-1.11304 0.173198,-0.39244 -0.407731,-0.51943 -0.596689,-0.81259 -0.189002,-0.21316 -0.320449,-0.65483 -0.477333,-0.93024 -0.122746,-0.36255 -0.328451,-0.43046 -0.451492,-0.67334 -0.203234,-0.23102 0.342202,-0.56833 0.230364,-0.86216 0.475215,-0.36076 -0.03123,-0.69039 -0.237296,-1.07227 0.158579,-0.25959 -0.04838,-0.64189 -0.244089,-0.9669 -0.16806,-0.27909 -0.688981,-0.5251 -0.688981,-0.80697 0,-0.33659 0.03523,-0.67706 0.06214,-1.00682 0.04814,-0.33331 -0.407259,-0.7241 -0.35544,-1.04263 -0.418592,-0.41178 -0.08498,-0.65552 -2.32e-4,-0.98185 -0.117936,-0.3412 0.234768,-0.70509 0.361842,-1.04575 0.148426,-0.31341 0.272758,-0.54081 0.415506,-0.83863 0.177875,-0.24028 0.259885,-0.67768 0.438201,-0.97735 0.108632,-0.33237 0.05443,-0.54633 0.241062,-0.80828 -0.0599,-0.318 0.815985,-0.61272 1.07652,-0.90744 0.508064,-0.17293 0.499243,-0.36172 0.670218,-0.53552 0.364566,-0.19707 0.635569,-0.42693 0.838171,-0.61138 0.425429,-0.20482 0.136369,-0.28831 0.321896,-0.44264 0.06552,-0.20794 0.184494,-0.66004 0.496546,-0.87803 -0.08161,-0.41534 0.506301,-0.28326 0.87324,-0.47497 0.169138,-0.0212 0.526116,-0.32614 0.903771,-0.48038 0.160166,-0.11833 0.567169,-0.29481 0.938313,-0.41254 0.202521,-0.13292 0.799139,-0.15732 1.158739,-0.24219 0.394452,-0.0217 0.07135,-0.0641 0.351395,-0.1202 -0.0659,-0.0211 1.736424,0.13492 2.251366,0.0669 0.920944,0.28777 0.899685,-0.0468 0.981248,-0.0746 0.410433,-0.13992 -0.321167,-0.40179 0.124899,-0.40179 0.336589,0 0.984489,-0.0477 1.314512,-0.0209 0.542929,-0.0428 0.20391,0.0707 0.428121,0.10184 0.155999,0.0837 0.805709,0.16973 1.199218,0.26601 0.309714,0.11245 0.500157,0.14921 0.802439,0.24905 0.221488,0.0971 0.842213,0.31031 1.17027,0.45149 0.402937,0.17222 0.0644,0.0872 0.292497,0.20271 -0.0037,0.0796 0.716208,0.39419 1.096467,0.63975 0.207137,0.14907 0.53808,0.54392 0.80877,0.74929 0.200817,0.33604 0.399953,0.31459 0.613814,0.49677 0.204017,0.17901 0.4935,0.45106 0.726218,0.67753 0.222074,0.232 -0.01517,0.4348 0.186472,0.6571 -0.174665,0.30093 0.517339,0.61052 0.770094,0.92265 0.181406,0.25034 0.615104,0.45622 0.793807,0.69999 0.398151,0.19793 0.239662,0.49475 0.379869,0.7165 0.09664,0.31977 0.311943,0.51656 0.453966,0.78064 0.145237,0.27518 0.147164,0.55375 0.271268,0.83766 -0.005,0.30204 0.0954,0.66342 0.211379,0.97684 -0.05276,0.3538 0.382795,0.60845 0.492366,0.91214 0.257331,0.29879 0.424995,0.55409 0.460067,0.85425 0.03778,0.32336 -0.208761,0.7549 -0.208761,1.09985 z"
           transform="matrix(0.44136866,0,0,0.44136866,20.58699,46.293895)" /><path
           style="opacity:1;fill:#7fb8df;fill-opacity:1;stroke:#000000;stroke-width:0.754683;stroke-linecap:round;stroke-dasharray:none;stroke-opacity:1"
           id="path43"
           d="m 32.945726,114.14701 c 0,0.33212 -0.06464,0.6462 -0.102054,0.96829 -0.06411,0.32638 -0.02119,0.597 -0.09194,0.90217 -0.0058,0.29502 -0.188551,0.51141 -0.30179,0.82254 -0.13795,0.19568 -0.268108,0.42369 -0.427317,0.73618 -0.174404,0.0988 -0.358739,0.64172 -0.56505,0.95155 -0.171769,0.2453 -0.350898,0.47429 -0.542255,0.71082 -0.195471,0.21516 -0.38791,0.53181 -0.602017,0.75145 -0.194339,0.27231 -0.389186,0.34936 -0.609533,0.53593 -0.219784,0.15144 -0.498098,0.28005 -0.763946,0.46133 -0.26545,0.0605 -0.36175,0.3647 -0.648346,0.52537 -0.120611,0.17916 -0.594018,0.23118 -0.936698,0.36643 -0.265586,0.0255 -0.657533,0.25422 -0.983206,0.35397 -0.332927,0.11068 -0.613789,0.1723 -0.907121,0.22517 -0.328346,0.0592 -0.633429,0.0628 -0.955397,0.0628 -0.33212,0 -0.622276,-0.0212 -0.944364,-0.0584 -0.296537,-0.0406 -0.643805,-0.10765 -0.965159,-0.18394 -0.294931,-0.0855 -0.608221,-0.17172 -0.907572,-0.27968 -0.284464,-0.11258 -0.587158,-0.24274 -0.86791,-0.38052 -0.27649,-0.14794 -0.432612,-0.2894 -0.690393,-0.4519 -0.172484,-0.18291 -0.54532,-0.40166 -0.806658,-0.60989 -0.22432,-0.21641 -0.316065,-0.33624 -0.530737,-0.54419 -0.103451,-0.1908 -0.478285,-0.49194 -0.701618,-0.7586 -0.189558,-0.23146 -0.358021,-0.49241 -0.530321,-0.74261 -0.151354,-0.26823 -0.323889,-0.53747 -0.470983,-0.8011 -0.138658,-0.29435 -0.425798,-0.52212 -0.54435,-0.79427 -0.267916,-0.27253 -0.241333,-0.62338 -0.308605,-0.91414 -0.0993,-0.36214 -0.07718,-0.48806 -0.0974,-0.78777 -0.02128,-0.31533 -0.05336,-0.86323 -0.05336,-1.20922 0,-0.33212 0.01396,-0.69681 0.05137,-1.01777 0.03076,-0.34681 0.09614,-0.62923 0.165018,-0.92587 0.07753,-0.31977 0.128473,-0.66468 0.230999,-0.95265 0.07079,-0.34555 0.286343,-0.51397 0.414847,-0.77705 0.207818,-0.24005 0.344933,-0.60252 0.509243,-0.86062 0.209235,-0.29276 0.308556,-0.43776 0.480286,-0.65507 0.190562,-0.2197 0.402869,-0.54128 0.622177,-0.76157 0.208327,-0.27004 0.41333,-0.37611 0.640443,-0.55757 0.236093,-0.17103 0.602061,-0.3788 0.871206,-0.5454 0.337328,-0.14846 0.535106,-0.26359 0.785631,-0.3868 0.319794,-0.11165 0.598795,-0.2632 0.876908,-0.36716 0.337363,-0.1169 0.553631,-0.18563 0.83869,-0.25732 0.301923,-0.0701 0.624998,-0.14054 0.954161,-0.18048 0.31246,-0.0379 0.558507,-0.0928 0.902133,-0.0928 0.33212,0 0.62649,0.026 0.949292,0.0638 0.299466,0.0456 0.666132,0.0958 0.987314,0.17257 0.314169,0.0722 0.616107,0.20237 0.911654,0.30908 0.294872,0.14257 0.565036,0.19578 0.840406,0.32984 0.278488,0.11086 0.5203,0.29466 0.789061,0.46477 0.227049,0.17183 0.591543,0.36526 0.843728,0.5667 0.286363,0.1893 0.479079,0.37977 0.688984,0.58619 0.24514,0.21362 0.462257,0.41889 0.654577,0.65471 0.235562,0.22018 0.3415,0.51132 0.507883,0.77362 0.131371,0.28303 0.255693,0.44419 0.39432,0.727 0.08514,0.21363 0.261235,0.71494 0.381997,1.05271 0.07159,0.35937 0.161091,0.56772 0.238519,0.84883 0.05602,0.319 0.140043,0.60332 0.195374,0.9174 0.05604,0.3181 0.129883,0.67839 0.129883,1.01318 z"
           transform="matrix(0.44136866,0,0,0.44136866,20.58699,46.293895)" /><path
           style="opacity:1;fill:#0072c1;fill-opacity:1;stroke:#000000;stroke-width:0.754683;stroke-linecap:round;stroke-dasharray:none;stroke-opacity:1"
           id="path44"
           d="m 29.889697,114.13737 c 0,0.32518 -0.07185,0.61528 -0.127939,0.92428 -0.0182,0.30304 -0.265735,0.53305 -0.378621,0.82896 -0.233355,0.20053 -0.45486,0.61439 -0.611206,0.8844 -0.332906,0.25354 -0.271257,0.45486 -0.415912,0.65103 -0.180064,0.26067 -0.219978,0.4725 -0.414978,0.66784 -0.09659,0.25789 -0.475627,0.43055 -0.752996,0.60314 -0.249941,0.16091 -0.55686,0.029 -0.849691,0.13767 -0.319261,-0.15598 -0.664511,0.18996 -0.982891,0.31336 -0.292281,0.11328 -0.526878,0.0425 -0.840538,0.0425 -0.325173,0 -0.474478,0.0483 -0.783613,-0.003 -0.198932,0.014 -0.57994,-0.10517 -0.923823,-0.23517 -0.180303,-0.071 -0.615273,-0.30698 -0.917784,-0.48934 -0.221959,-0.18013 -0.461131,-0.33465 -0.689478,-0.52095 -0.19363,-0.19737 -0.478051,-0.4021 -0.676001,-0.61585 -0.225972,-0.22068 -0.349731,-0.41272 -0.50207,-0.63755 -0.156095,-0.23974 -0.401095,-0.55634 -0.520058,-0.8246 -0.208284,-0.31803 -0.209501,-0.52245 -0.252836,-0.79202 -0.04821,-0.29992 -0.04299,-0.61182 -0.04299,-0.94908 0,-0.32517 -0.09169,-0.56404 -0.03553,-0.87302 -0.05798,-0.26741 0.168177,-0.86826 0.299389,-1.19073 0.102803,-0.42291 0.153358,-0.38194 0.283294,-0.59831 0.119206,-0.2108 0.434185,-0.58349 0.668427,-0.83842 0.245913,-0.2264 0.385526,-0.43927 0.613367,-0.62011 0.215406,-0.21721 0.515237,-0.43819 0.787091,-0.58487 0.277762,-0.21873 0.465456,-0.20678 0.746368,-0.29344 0.239923,-0.0493 0.656048,-0.29871 0.999625,-0.351 0.316851,-0.0482 0.757102,0.01 1.070815,0.01 0.325173,0 0.641894,-0.25976 0.948027,-0.20275 0.343482,-0.2256 0.670315,0.064 0.984121,0.20255 0.304701,0.0321 0.600101,0.0991 0.873912,0.30132 0.287766,0.004 0.536412,0.2178 0.780072,0.50403 0.220458,0.032 0.556655,0.66817 0.748666,1.02407 0.229677,0.30099 0.215341,0.50823 0.313191,0.76626 0.08006,0.30131 0.139493,0.60729 0.214632,0.90143 0.01596,0.33055 0.146235,0.2546 0.201709,0.54844 0.06055,0.32072 0.186251,0.99564 0.186251,1.30899 z"
           transform="matrix(0.44136866,0,0,0.44136866,20.58699,46.293895)" /></g><text
         xml:space="preserve"
         style="font-size:142.641px;line-height:0.7;font-family:jost;-inkscape-font-specification:jost;text-align:justify;writing-mode:lr-tb;direction:ltr;text-anchor:start;display:inline;fill:none;stroke:#000000;stroke-width:44.4798;stroke-dasharray:none"
         x="688.69629"
         y="129.51646"
         id="text44"><tspan
           id="tspan44"
           style="font-style:normal;font-variant:normal;font-weight:normal;font-stretch:normal;font-family:Dosis;-inkscape-font-specification:Dosis;fill:#000000;fill-opacity:1;stroke:none;stroke-width:44.4798;stroke-dasharray:none;stroke-opacity:1"
           x="688.69629"
           y="129.51646">J</tspan></text><text
         xml:space="preserve"
         style="font-size:39.1262px;line-height:0.7;font-family:jost;-inkscape-font-specification:jost;text-align:justify;writing-mode:lr-tb;direction:ltr;text-anchor:start;display:inline;opacity:1;fill:#ababab;fill-opacity:1;stroke:none;stroke-width:28.1692;stroke-opacity:1"
         x="691.68298"
         y="172.46957"
         id="text45"><tspan
           id="tspan45"
           style="font-style:normal;font-variant:normal;font-weight:normal;font-stretch:normal;font-size:39.1262px;font-family:Dosis;-inkscape-font-specification:Dosis;fill:#ababab;fill-opacity:1;stroke:none;stroke-width:28.1692;stroke-opacity:1"
           x="691.68298"
           y="172.46957">Just LOvely Plots </tspan></text></g></g></svg>
